<svg width="33" height="32" viewBox="0 0 33 32" fill="none" xmlns="http://www.w3.org/2000/svg">
<g clip-path="url(#clip0_1128_19646)">
<path d="M32.6001 16.005H31.0701V22.095H32.6001V16.005Z" fill="#FFFFFF"/>
<path d="M31.07 22.095H29.55V23.625H31.07V22.095Z" fill="#FFFFFF"/>
<path d="M31.07 14.475H29.55V16.005H31.07V14.475Z" fill="#FFFFFF"/>
<path d="M29.5502 23.625H28.0302V25.145H29.5502V23.625Z" fill="#FFFFFF"/>
<path d="M29.5502 12.955H28.0302V14.475H29.5502V12.955Z" fill="#FFFFFF"/>
<path d="M28.0301 25.145H3.65015V26.665H28.0301V25.145Z" fill="#FFFFFF"/>
<path d="M28.0301 11.435H24.9801V12.955H28.0301V11.435Z" fill="#FFFFFF"/>
<path d="M24.9801 9.905H23.4501V11.435H24.9801V9.905Z" fill="#FFFFFF"/>
<path d="M23.4501 17.525H21.9301V19.045H23.4501V17.525Z" fill="#FFFFFF"/>
<path d="M23.4501 14.475H21.9301V16.005H23.4501V14.475Z" fill="#FFFFFF"/>
<path d="M23.4501 8.385H21.9301V9.905H23.4501V8.385Z" fill="#FFFFFF"/>
<path d="M21.9302 16.005H20.4102V17.525H21.9302V16.005Z" fill="#FFFFFF"/>
<path d="M20.4101 17.525H18.8801V19.045H20.4101V17.525Z" fill="#FFFFFF"/>
<path d="M20.4101 14.475H18.8801V16.005H20.4101V14.475Z" fill="#FFFFFF"/>
<path d="M21.9301 6.855H18.8801V8.385H21.9301V6.855Z" fill="#FFFFFF"/>
<path d="M14.3101 22.095H17.3601V23.625H20.4101V20.575H14.3101V22.095Z" fill="#FFFFFF"/>
<path d="M18.8801 5.335H14.3101V6.855H18.8801V5.335Z" fill="#FFFFFF"/>
<path d="M14.31 17.525H12.79V19.045H14.31V17.525Z" fill="#FFFFFF"/>
<path d="M14.31 14.475H12.79V16.005H14.31V14.475Z" fill="#FFFFFF"/>
<path d="M14.3101 6.855H11.2601V8.385H14.3101V6.855Z" fill="#FFFFFF"/>
<path d="M12.7901 16.005H11.2601V17.525H12.7901V16.005Z" fill="#FFFFFF"/>
<path d="M11.2601 17.525H9.74011V19.045H11.2601V17.525Z" fill="#FFFFFF"/>
<path d="M11.2601 14.475H9.74011V16.005H11.2601V14.475Z" fill="#FFFFFF"/>
<path d="M11.2601 8.385H9.74011V9.905H11.2601V8.385Z" fill="#FFFFFF"/>
<path d="M9.74009 9.905H8.22009V12.955H9.74009V9.905Z" fill="#FFFFFF"/>
<path d="M8.22015 12.955H3.65015V14.475H8.22015V12.955Z" fill="#FFFFFF"/>
<path d="M3.65012 23.625H2.12012V25.145H3.65012V23.625Z" fill="#FFFFFF"/>
<path d="M3.65012 14.475H2.12012V16.005H3.65012V14.475Z" fill="#FFFFFF"/>
<path d="M2.1201 16.005H0.600098V23.625H2.1201V16.005Z" fill="#FFFFFF"/>
</g>
<defs>
<clipPath id="clip0_1128_19646">
<rect width="32" height="32" fill="white" transform="translate(0.600098)"/>
</clipPath>
</defs>
</svg>
